<mxfile host="app.diagrams.net" agent="Mozilla/5.0 (Windows NT 10.0; Win64; x64) AppleWebKit/537.36 (KHTML, like Gecko) Chrome/127.0.0.0 Safari/537.36 OPR/113.0.0.0" version="24.8.2">
  <diagram name="Page-1" id="6TQw4OdjMxEPBKnI7ix2">
    <mxGraphModel dx="1532" dy="817" grid="1" gridSize="10" guides="1" tooltips="1" connect="1" arrows="1" fold="1" page="1" pageScale="1" pageWidth="827" pageHeight="1169" math="0" shadow="0">
      <root>
        <mxCell id="0" />
        <mxCell id="1" parent="0" />
        <mxCell id="NxpwYilW3Hz6h9pHT7n_-33" style="edgeStyle=orthogonalEdgeStyle;rounded=0;orthogonalLoop=1;jettySize=auto;html=1;exitX=0;exitY=0.75;exitDx=0;exitDy=0;exitPerimeter=0;endArrow=none;endFill=0;" edge="1" parent="1" source="NxpwYilW3Hz6h9pHT7n_-1">
          <mxGeometry relative="1" as="geometry">
            <mxPoint x="204.8974358974359" y="80" as="targetPoint" />
          </mxGeometry>
        </mxCell>
        <mxCell id="NxpwYilW3Hz6h9pHT7n_-35" style="edgeStyle=orthogonalEdgeStyle;rounded=0;orthogonalLoop=1;jettySize=auto;html=1;exitX=0;exitY=0.25;exitDx=0;exitDy=0;exitPerimeter=0;endArrow=none;endFill=0;" edge="1" parent="1" source="NxpwYilW3Hz6h9pHT7n_-1">
          <mxGeometry relative="1" as="geometry">
            <mxPoint x="234.80952380952385" y="40" as="targetPoint" />
          </mxGeometry>
        </mxCell>
        <mxCell id="NxpwYilW3Hz6h9pHT7n_-1" value="" style="verticalLabelPosition=bottom;shadow=0;dashed=0;align=center;html=1;verticalAlign=top;shape=mxgraph.electrical.logic_gates.logic_gate;operation=and;direction=south;" vertex="1" parent="1">
          <mxGeometry x="190" y="115" width="60" height="100" as="geometry" />
        </mxCell>
        <mxCell id="NxpwYilW3Hz6h9pHT7n_-32" style="edgeStyle=orthogonalEdgeStyle;rounded=0;orthogonalLoop=1;jettySize=auto;html=1;exitX=0;exitY=0.75;exitDx=0;exitDy=0;exitPerimeter=0;endArrow=none;endFill=0;" edge="1" parent="1" source="NxpwYilW3Hz6h9pHT7n_-2">
          <mxGeometry relative="1" as="geometry">
            <mxPoint x="70" y="80" as="targetPoint" />
            <Array as="points">
              <mxPoint x="285" y="80" />
            </Array>
          </mxGeometry>
        </mxCell>
        <mxCell id="NxpwYilW3Hz6h9pHT7n_-34" style="edgeStyle=orthogonalEdgeStyle;rounded=0;orthogonalLoop=1;jettySize=auto;html=1;exitX=0;exitY=0.25;exitDx=0;exitDy=0;exitPerimeter=0;endArrow=none;endFill=0;" edge="1" parent="1" source="NxpwYilW3Hz6h9pHT7n_-2">
          <mxGeometry relative="1" as="geometry">
            <mxPoint x="70" y="40" as="targetPoint" />
            <Array as="points">
              <mxPoint x="315" y="40" />
            </Array>
          </mxGeometry>
        </mxCell>
        <mxCell id="NxpwYilW3Hz6h9pHT7n_-2" value="" style="verticalLabelPosition=bottom;shadow=0;dashed=0;align=center;html=1;verticalAlign=top;shape=mxgraph.electrical.logic_gates.logic_gate;operation=and;direction=south;" vertex="1" parent="1">
          <mxGeometry x="270" y="115" width="60" height="100" as="geometry" />
        </mxCell>
        <mxCell id="NxpwYilW3Hz6h9pHT7n_-4" value="" style="ellipse;whiteSpace=wrap;html=1;aspect=fixed;" vertex="1" parent="1">
          <mxGeometry x="310" y="125" width="10" height="10" as="geometry" />
        </mxCell>
        <mxCell id="NxpwYilW3Hz6h9pHT7n_-5" value="" style="verticalLabelPosition=bottom;shadow=0;dashed=0;align=center;html=1;verticalAlign=top;shape=mxgraph.electrical.logic_gates.logic_gate;operation=and;direction=east;" vertex="1" parent="1">
          <mxGeometry x="250" y="270" width="100" height="60" as="geometry" />
        </mxCell>
        <mxCell id="NxpwYilW3Hz6h9pHT7n_-10" style="edgeStyle=orthogonalEdgeStyle;rounded=0;orthogonalLoop=1;jettySize=auto;html=1;exitX=0;exitY=0.75;exitDx=0;exitDy=0;exitPerimeter=0;endArrow=none;endFill=0;" edge="1" parent="1" source="NxpwYilW3Hz6h9pHT7n_-6">
          <mxGeometry relative="1" as="geometry">
            <mxPoint x="220" y="280" as="targetPoint" />
          </mxGeometry>
        </mxCell>
        <mxCell id="NxpwYilW3Hz6h9pHT7n_-6" value="" style="verticalLabelPosition=bottom;shadow=0;dashed=0;align=center;html=1;verticalAlign=top;shape=mxgraph.electrical.logic_gates.logic_gate;operation=and;direction=east;" vertex="1" parent="1">
          <mxGeometry x="250" y="410" width="100" height="60" as="geometry" />
        </mxCell>
        <mxCell id="NxpwYilW3Hz6h9pHT7n_-7" style="rounded=0;orthogonalLoop=1;jettySize=auto;html=1;exitX=0;exitY=0.75;exitDx=0;exitDy=0;exitPerimeter=0;entryX=0;entryY=0.25;entryDx=0;entryDy=0;entryPerimeter=0;endArrow=none;endFill=0;" edge="1" parent="1" source="NxpwYilW3Hz6h9pHT7n_-5" target="NxpwYilW3Hz6h9pHT7n_-6">
          <mxGeometry relative="1" as="geometry">
            <Array as="points">
              <mxPoint x="250" y="370" />
            </Array>
          </mxGeometry>
        </mxCell>
        <mxCell id="NxpwYilW3Hz6h9pHT7n_-9" style="edgeStyle=orthogonalEdgeStyle;rounded=0;orthogonalLoop=1;jettySize=auto;html=1;exitX=1;exitY=0.5;exitDx=0;exitDy=0;exitPerimeter=0;entryX=0;entryY=0.25;entryDx=0;entryDy=0;entryPerimeter=0;endArrow=none;endFill=0;" edge="1" parent="1" source="NxpwYilW3Hz6h9pHT7n_-1" target="NxpwYilW3Hz6h9pHT7n_-5">
          <mxGeometry relative="1" as="geometry" />
        </mxCell>
        <mxCell id="NxpwYilW3Hz6h9pHT7n_-11" value="" style="ellipse;whiteSpace=wrap;html=1;aspect=fixed;" vertex="1" parent="1">
          <mxGeometry x="260" y="420" width="10" height="10" as="geometry" />
        </mxCell>
        <mxCell id="NxpwYilW3Hz6h9pHT7n_-18" style="edgeStyle=orthogonalEdgeStyle;rounded=0;orthogonalLoop=1;jettySize=auto;html=1;exitX=1;exitY=0.5;exitDx=0;exitDy=0;exitPerimeter=0;endArrow=none;endFill=0;" edge="1" parent="1" source="NxpwYilW3Hz6h9pHT7n_-12">
          <mxGeometry relative="1" as="geometry">
            <mxPoint x="570" y="314.83333333333337" as="targetPoint" />
          </mxGeometry>
        </mxCell>
        <mxCell id="NxpwYilW3Hz6h9pHT7n_-21" style="edgeStyle=orthogonalEdgeStyle;rounded=0;orthogonalLoop=1;jettySize=auto;html=1;exitX=0;exitY=0.25;exitDx=0;exitDy=0;exitPerimeter=0;endArrow=none;endFill=0;" edge="1" parent="1" source="NxpwYilW3Hz6h9pHT7n_-12">
          <mxGeometry relative="1" as="geometry">
            <mxPoint x="400" y="349.99999999999994" as="targetPoint" />
          </mxGeometry>
        </mxCell>
        <mxCell id="NxpwYilW3Hz6h9pHT7n_-23" style="edgeStyle=orthogonalEdgeStyle;rounded=0;orthogonalLoop=1;jettySize=auto;html=1;exitX=1;exitY=0.5;exitDx=0;exitDy=0;exitPerimeter=0;endArrow=none;endFill=0;" edge="1" parent="1" source="NxpwYilW3Hz6h9pHT7n_-12">
          <mxGeometry relative="1" as="geometry">
            <mxPoint x="500" y="349.99999999999994" as="targetPoint" />
          </mxGeometry>
        </mxCell>
        <mxCell id="NxpwYilW3Hz6h9pHT7n_-12" value="" style="verticalLabelPosition=bottom;shadow=0;dashed=0;align=center;html=1;verticalAlign=top;shape=mxgraph.electrical.logic_gates.logic_gate;operation=or;negating=1;negSize=0.15;flipH=0;flipV=1;" vertex="1" parent="1">
          <mxGeometry x="404" y="285" width="100" height="60" as="geometry" />
        </mxCell>
        <mxCell id="NxpwYilW3Hz6h9pHT7n_-17" style="edgeStyle=orthogonalEdgeStyle;rounded=0;orthogonalLoop=1;jettySize=auto;html=1;exitX=1;exitY=0.5;exitDx=0;exitDy=0;exitPerimeter=0;endArrow=none;endFill=0;entryX=0;entryY=0.75;entryDx=0;entryDy=0;entryPerimeter=0;" edge="1" parent="1" source="NxpwYilW3Hz6h9pHT7n_-13" target="NxpwYilW3Hz6h9pHT7n_-25">
          <mxGeometry relative="1" as="geometry">
            <mxPoint x="570" y="425" as="targetPoint" />
            <Array as="points">
              <mxPoint x="595" y="425" />
            </Array>
          </mxGeometry>
        </mxCell>
        <mxCell id="NxpwYilW3Hz6h9pHT7n_-22" style="edgeStyle=orthogonalEdgeStyle;rounded=0;orthogonalLoop=1;jettySize=auto;html=1;exitX=0;exitY=0.25;exitDx=0;exitDy=0;exitPerimeter=0;endArrow=none;endFill=0;" edge="1" parent="1" source="NxpwYilW3Hz6h9pHT7n_-13">
          <mxGeometry relative="1" as="geometry">
            <mxPoint x="400" y="390" as="targetPoint" />
          </mxGeometry>
        </mxCell>
        <mxCell id="NxpwYilW3Hz6h9pHT7n_-24" style="edgeStyle=orthogonalEdgeStyle;rounded=0;orthogonalLoop=1;jettySize=auto;html=1;exitX=1;exitY=0.5;exitDx=0;exitDy=0;exitPerimeter=0;endArrow=none;endFill=0;" edge="1" parent="1" source="NxpwYilW3Hz6h9pHT7n_-13">
          <mxGeometry relative="1" as="geometry">
            <mxPoint x="500" y="390" as="targetPoint" />
          </mxGeometry>
        </mxCell>
        <mxCell id="NxpwYilW3Hz6h9pHT7n_-13" value="" style="verticalLabelPosition=bottom;shadow=0;dashed=0;align=center;html=1;verticalAlign=top;shape=mxgraph.electrical.logic_gates.logic_gate;operation=or;negating=1;negSize=0.15;" vertex="1" parent="1">
          <mxGeometry x="404" y="395" width="100" height="60" as="geometry" />
        </mxCell>
        <mxCell id="NxpwYilW3Hz6h9pHT7n_-15" style="edgeStyle=orthogonalEdgeStyle;rounded=0;orthogonalLoop=1;jettySize=auto;html=1;exitX=1;exitY=0.5;exitDx=0;exitDy=0;exitPerimeter=0;entryX=0;entryY=0.75;entryDx=0;entryDy=0;entryPerimeter=0;endArrow=none;endFill=0;" edge="1" parent="1" source="NxpwYilW3Hz6h9pHT7n_-5" target="NxpwYilW3Hz6h9pHT7n_-12">
          <mxGeometry relative="1" as="geometry" />
        </mxCell>
        <mxCell id="NxpwYilW3Hz6h9pHT7n_-16" style="edgeStyle=orthogonalEdgeStyle;rounded=0;orthogonalLoop=1;jettySize=auto;html=1;exitX=1;exitY=0.5;exitDx=0;exitDy=0;exitPerimeter=0;entryX=0;entryY=0.75;entryDx=0;entryDy=0;entryPerimeter=0;endArrow=none;endFill=0;" edge="1" parent="1" source="NxpwYilW3Hz6h9pHT7n_-6" target="NxpwYilW3Hz6h9pHT7n_-13">
          <mxGeometry relative="1" as="geometry" />
        </mxCell>
        <mxCell id="NxpwYilW3Hz6h9pHT7n_-19" style="rounded=0;orthogonalLoop=1;jettySize=auto;html=1;endArrow=none;endFill=0;" edge="1" parent="1">
          <mxGeometry relative="1" as="geometry">
            <mxPoint x="400" y="350" as="sourcePoint" />
            <mxPoint x="500" y="390" as="targetPoint" />
          </mxGeometry>
        </mxCell>
        <mxCell id="NxpwYilW3Hz6h9pHT7n_-20" style="rounded=0;orthogonalLoop=1;jettySize=auto;html=1;endArrow=none;endFill=0;" edge="1" parent="1">
          <mxGeometry relative="1" as="geometry">
            <mxPoint x="400" y="389.9999999999999" as="sourcePoint" />
            <mxPoint x="500" y="349.9999999999999" as="targetPoint" />
          </mxGeometry>
        </mxCell>
        <mxCell id="NxpwYilW3Hz6h9pHT7n_-25" value="" style="verticalLabelPosition=bottom;shadow=0;dashed=0;align=center;html=1;verticalAlign=top;shape=mxgraph.electrical.logic_gates.logic_gate;operation=and;direction=south;" vertex="1" parent="1">
          <mxGeometry x="580" y="430" width="60" height="100" as="geometry" />
        </mxCell>
        <mxCell id="NxpwYilW3Hz6h9pHT7n_-26" style="edgeStyle=orthogonalEdgeStyle;rounded=0;orthogonalLoop=1;jettySize=auto;html=1;exitX=1;exitY=0.5;exitDx=0;exitDy=0;exitPerimeter=0;entryX=0;entryY=0.25;entryDx=0;entryDy=0;entryPerimeter=0;endArrow=none;endFill=0;" edge="1" parent="1" source="NxpwYilW3Hz6h9pHT7n_-2" target="NxpwYilW3Hz6h9pHT7n_-25">
          <mxGeometry relative="1" as="geometry">
            <Array as="points">
              <mxPoint x="300" y="240" />
              <mxPoint x="625" y="240" />
            </Array>
          </mxGeometry>
        </mxCell>
        <mxCell id="NxpwYilW3Hz6h9pHT7n_-30" style="edgeStyle=none;rounded=0;orthogonalLoop=1;jettySize=auto;html=1;exitX=0;exitY=0.25;exitDx=0;exitDy=0;exitPerimeter=0;endArrow=none;endFill=0;" edge="1" parent="1" source="NxpwYilW3Hz6h9pHT7n_-28">
          <mxGeometry relative="1" as="geometry">
            <mxPoint x="676" y="40" as="targetPoint" />
          </mxGeometry>
        </mxCell>
        <mxCell id="NxpwYilW3Hz6h9pHT7n_-42" style="edgeStyle=orthogonalEdgeStyle;rounded=0;orthogonalLoop=1;jettySize=auto;html=1;exitX=1;exitY=0.5;exitDx=0;exitDy=0;exitPerimeter=0;endArrow=none;endFill=0;" edge="1" parent="1" source="NxpwYilW3Hz6h9pHT7n_-28">
          <mxGeometry relative="1" as="geometry">
            <mxPoint x="659.8571428571431" y="690" as="targetPoint" />
          </mxGeometry>
        </mxCell>
        <mxCell id="NxpwYilW3Hz6h9pHT7n_-28" value="" style="verticalLabelPosition=bottom;shadow=0;dashed=0;align=center;html=1;verticalAlign=top;shape=mxgraph.electrical.logic_gates.logic_gate;operation=or;direction=south;" vertex="1" parent="1">
          <mxGeometry x="630" y="540" width="60" height="100" as="geometry" />
        </mxCell>
        <mxCell id="NxpwYilW3Hz6h9pHT7n_-29" style="edgeStyle=orthogonalEdgeStyle;rounded=0;orthogonalLoop=1;jettySize=auto;html=1;exitX=1;exitY=0.5;exitDx=0;exitDy=0;exitPerimeter=0;entryX=0;entryY=0.75;entryDx=0;entryDy=0;entryPerimeter=0;endArrow=none;endFill=0;" edge="1" parent="1" source="NxpwYilW3Hz6h9pHT7n_-25" target="NxpwYilW3Hz6h9pHT7n_-28">
          <mxGeometry relative="1" as="geometry" />
        </mxCell>
        <mxCell id="NxpwYilW3Hz6h9pHT7n_-36" value="" style="ellipse;whiteSpace=wrap;html=1;aspect=fixed;fillColor=#000000;gradientColor=default;" vertex="1" parent="1">
          <mxGeometry x="202" y="77" width="7" height="7" as="geometry" />
        </mxCell>
        <mxCell id="NxpwYilW3Hz6h9pHT7n_-39" value="" style="ellipse;whiteSpace=wrap;html=1;aspect=fixed;fillColor=#000000;gradientColor=default;" vertex="1" parent="1">
          <mxGeometry x="231" y="37" width="7" height="7" as="geometry" />
        </mxCell>
        <mxCell id="NxpwYilW3Hz6h9pHT7n_-40" value="" style="ellipse;whiteSpace=wrap;html=1;aspect=fixed;fillColor=#000000;gradientColor=default;" vertex="1" parent="1">
          <mxGeometry x="497" y="311.5" width="7" height="7" as="geometry" />
        </mxCell>
        <mxCell id="NxpwYilW3Hz6h9pHT7n_-41" value="" style="ellipse;whiteSpace=wrap;html=1;aspect=fixed;fillColor=#000000;gradientColor=default;" vertex="1" parent="1">
          <mxGeometry x="496" y="421" width="7" height="7" as="geometry" />
        </mxCell>
        <mxCell id="NxpwYilW3Hz6h9pHT7n_-43" value="&lt;font style=&quot;font-size: 14px;&quot;&gt;WordLine&lt;/font&gt;" style="text;html=1;align=center;verticalAlign=middle;whiteSpace=wrap;rounded=0;" vertex="1" parent="1">
          <mxGeometry x="70" y="54" width="60" height="30" as="geometry" />
        </mxCell>
        <mxCell id="NxpwYilW3Hz6h9pHT7n_-44" value="&lt;font style=&quot;font-size: 14px;&quot;&gt;RW&lt;/font&gt;" style="text;html=1;align=center;verticalAlign=middle;whiteSpace=wrap;rounded=0;" vertex="1" parent="1">
          <mxGeometry x="50" y="14" width="60" height="30" as="geometry" />
        </mxCell>
        <mxCell id="NxpwYilW3Hz6h9pHT7n_-46" value="&lt;font style=&quot;font-size: 14px;&quot;&gt;BitCarry&lt;/font&gt;" style="text;html=1;align=center;verticalAlign=middle;whiteSpace=wrap;rounded=0;" vertex="1" parent="1">
          <mxGeometry x="680" y="37" width="60" height="30" as="geometry" />
        </mxCell>
        <mxCell id="NxpwYilW3Hz6h9pHT7n_-47" value="&lt;font style=&quot;font-size: 20px;&quot;&gt;Q&lt;/font&gt;" style="text;html=1;align=center;verticalAlign=middle;whiteSpace=wrap;rounded=0;fontSize=20;" vertex="1" parent="1">
          <mxGeometry x="504" y="288.5" width="60" height="30" as="geometry" />
        </mxCell>
        <mxCell id="NxpwYilW3Hz6h9pHT7n_-48" value="&lt;font style=&quot;font-size: 20px;&quot;&gt;Q&lt;/font&gt;" style="text;html=1;align=center;verticalAlign=middle;whiteSpace=wrap;rounded=0;fontSize=20;" vertex="1" parent="1">
          <mxGeometry x="503" y="398" width="60" height="30" as="geometry" />
        </mxCell>
        <mxCell id="NxpwYilW3Hz6h9pHT7n_-49" style="edgeStyle=orthogonalEdgeStyle;rounded=0;orthogonalLoop=1;jettySize=auto;html=1;exitX=0.25;exitY=0;exitDx=0;exitDy=0;entryX=0.75;entryY=0;entryDx=0;entryDy=0;endArrow=none;endFill=0;" edge="1" parent="1" source="NxpwYilW3Hz6h9pHT7n_-48" target="NxpwYilW3Hz6h9pHT7n_-48">
          <mxGeometry relative="1" as="geometry" />
        </mxCell>
        <mxCell id="NxpwYilW3Hz6h9pHT7n_-50" value="&lt;font style=&quot;font-size: 14px;&quot;&gt;BitOut&lt;/font&gt;" style="text;html=1;align=center;verticalAlign=middle;whiteSpace=wrap;rounded=0;" vertex="1" parent="1">
          <mxGeometry x="660" y="670" width="60" height="30" as="geometry" />
        </mxCell>
        <mxCell id="NxpwYilW3Hz6h9pHT7n_-51" value="&lt;font color=&quot;#b3b3b3&quot; style=&quot;font-size: 14px;&quot;&gt;t1&lt;/font&gt;" style="text;html=1;align=center;verticalAlign=middle;whiteSpace=wrap;rounded=0;" vertex="1" parent="1">
          <mxGeometry x="178" y="270" width="60" height="30" as="geometry" />
        </mxCell>
        <mxCell id="NxpwYilW3Hz6h9pHT7n_-52" value="&lt;font color=&quot;#b3b3b3&quot; style=&quot;font-size: 14px;&quot;&gt;t2&lt;/font&gt;" style="text;html=1;align=center;verticalAlign=middle;whiteSpace=wrap;rounded=0;" vertex="1" parent="1">
          <mxGeometry x="344" y="270" width="60" height="30" as="geometry" />
        </mxCell>
        <mxCell id="NxpwYilW3Hz6h9pHT7n_-53" value="&lt;font color=&quot;#b3b3b3&quot; style=&quot;font-size: 14px;&quot;&gt;t3&lt;/font&gt;" style="text;html=1;align=center;verticalAlign=middle;whiteSpace=wrap;rounded=0;" vertex="1" parent="1">
          <mxGeometry x="344" y="410" width="60" height="30" as="geometry" />
        </mxCell>
        <mxCell id="NxpwYilW3Hz6h9pHT7n_-54" value="&lt;font color=&quot;#b3b3b3&quot; style=&quot;font-size: 14px;&quot;&gt;t4&lt;/font&gt;" style="text;html=1;align=center;verticalAlign=middle;whiteSpace=wrap;rounded=0;" vertex="1" parent="1">
          <mxGeometry x="424" y="215" width="60" height="30" as="geometry" />
        </mxCell>
        <mxCell id="NxpwYilW3Hz6h9pHT7n_-55" value="&lt;font color=&quot;#b3b3b3&quot; style=&quot;font-size: 14px;&quot;&gt;t5&lt;/font&gt;" style="text;html=1;align=center;verticalAlign=middle;whiteSpace=wrap;rounded=0;" vertex="1" parent="1">
          <mxGeometry x="580" y="530" width="60" height="30" as="geometry" />
        </mxCell>
        <mxCell id="NxpwYilW3Hz6h9pHT7n_-59" style="edgeStyle=orthogonalEdgeStyle;rounded=0;orthogonalLoop=1;jettySize=auto;html=1;exitX=0;exitY=0.5;exitDx=0;exitDy=0;endArrow=none;endFill=0;" edge="1" parent="1">
          <mxGeometry relative="1" as="geometry">
            <mxPoint x="110" y="370.4000000000001" as="targetPoint" />
            <mxPoint x="250" y="370" as="sourcePoint" />
          </mxGeometry>
        </mxCell>
        <mxCell id="NxpwYilW3Hz6h9pHT7n_-60" value="&lt;font style=&quot;font-size: 20px;&quot;&gt;i&lt;/font&gt;" style="text;html=1;align=center;verticalAlign=middle;whiteSpace=wrap;rounded=0;fontSize=20;" vertex="1" parent="1">
          <mxGeometry x="90" y="345" width="50" height="30" as="geometry" />
        </mxCell>
      </root>
    </mxGraphModel>
  </diagram>
</mxfile>
